<svg width="73" height="74" viewBox="0 0 73 74" fill="none" xmlns="http://www.w3.org/2000/svg">
<circle cx="36.7292" cy="37" r="35" fill="#B18A0D"/>
<path d="M34.8314 22.9068L35.28 47.6111L26.0608 40.2147C25.629 39.8689 25.0775 39.7088 24.5276 39.7695C23.9778 39.8303 23.4746 40.1071 23.1287 40.5389C22.7829 40.9707 22.6227 41.5222 22.6835 42.072C22.7443 42.6219 23.021 43.1251 23.4529 43.471L36.1399 53.659C36.2406 53.7272 36.3462 53.788 36.4558 53.8408C36.5599 53.8389 36.6224 53.8377 36.7292 53.9816C36.9698 54.0717 37.2249 54.1165 37.4817 54.1138C37.7385 54.1072 37.9918 54.0532 38.229 53.9544C38.3331 53.9525 38.3956 53.9514 38.4971 53.8037C38.6047 53.747 38.708 53.6824 38.8061 53.6105L51.115 42.9686C51.3465 42.7685 51.5312 42.5198 51.6557 42.2403C51.7803 41.9607 51.8418 41.6571 51.8357 41.3511C51.8278 40.8644 51.6498 40.3958 51.3324 40.0267C51.1537 39.819 50.9358 39.6485 50.6911 39.5251C50.4464 39.4017 50.1798 39.3278 49.9066 39.3076C49.6333 39.2874 49.3587 39.3213 49.0985 39.4074C48.8384 39.4935 48.5978 39.63 48.3905 39.8092L39.4459 47.5354L38.9973 22.8312C38.9873 22.2787 38.7582 21.7529 38.3605 21.3693C37.9628 20.9858 37.429 20.776 36.8765 20.786C36.3241 20.796 35.7982 21.0251 35.4147 21.4228C35.0312 21.8206 34.8213 22.3544 34.8314 22.9068Z" fill="#231F20"/>
</svg>
