<svg width="41" height="40" viewBox="0 0 41 40" fill="none" xmlns="http://www.w3.org/2000/svg">
<g clip-path="url(#clip0_2_204)">
<path d="M34.3617 6.92598C31.8122 5.75617 29.0783 4.89431 26.2198 4.40069C26.1678 4.39116 26.1158 4.41497 26.089 4.46259C25.7374 5.08795 25.3479 5.90378 25.0752 6.54502C22.0007 6.08474 18.942 6.08474 15.9305 6.54502C15.6577 5.88953 15.2541 5.08795 14.901 4.46259C14.8741 4.41656 14.8221 4.39275 14.7701 4.40069C11.9132 4.89274 9.17927 5.7546 6.62823 6.92598C6.60614 6.9355 6.58721 6.95138 6.57465 6.972C1.38899 14.7193 -0.0315838 22.2761 0.6653 29.7393C0.668453 29.7758 0.68895 29.8107 0.71733 29.8329C4.13868 32.3455 7.45285 33.8708 10.7055 34.8819C10.7575 34.8977 10.8127 34.8787 10.8458 34.8358C11.6152 33.7851 12.3011 32.6772 12.8891 31.5122C12.9238 31.4439 12.8907 31.363 12.8198 31.336C11.7319 30.9233 10.696 30.4202 9.69955 29.8488C9.62073 29.8028 9.61442 29.69 9.68693 29.6361C9.89662 29.4789 10.1064 29.3154 10.3066 29.1504C10.3428 29.1202 10.3933 29.1139 10.4359 29.1329C16.9821 32.1217 24.0692 32.1217 30.5383 29.1329C30.5808 29.1123 30.6313 29.1187 30.6691 29.1488C30.8694 29.3139 31.0791 29.4789 31.2904 29.6361C31.3629 29.69 31.3581 29.8028 31.2793 29.8488C30.2829 30.4313 29.247 30.9233 28.1575 31.3344C28.0866 31.3614 28.055 31.4439 28.0897 31.5122C28.6904 32.6756 29.3763 33.7835 30.1315 34.8343C30.163 34.8787 30.2198 34.8977 30.2718 34.8819C33.5402 33.8708 36.8544 32.3455 40.2757 29.8329C40.3057 29.8107 40.3246 29.7774 40.3278 29.7408C41.1618 21.1126 38.9308 13.6177 34.4137 6.97358C34.4026 6.95138 34.3838 6.9355 34.3617 6.92598ZM13.8667 25.195C11.8958 25.195 10.2719 23.3856 10.2719 21.1634C10.2719 18.9413 11.8643 17.1319 13.8667 17.1319C15.8848 17.1319 17.493 18.9572 17.4615 21.1634C17.4615 23.3856 15.869 25.195 13.8667 25.195ZM27.1579 25.195C25.1871 25.195 23.5632 23.3856 23.5632 21.1634C23.5632 18.9413 25.1556 17.1319 27.1579 17.1319C29.1761 17.1319 30.7842 18.9572 30.7527 21.1634C30.7527 23.3856 29.1761 25.195 27.1579 25.195Z" fill="black"/>
</g>
<defs>
<clipPath id="clip0_2_204">
<rect width="40" height="40" fill="white" transform="translate(0.5)"/>
</clipPath>
</defs>
</svg>
