<svg width="48" height="40" viewBox="0 0 48 40" fill="none" xmlns="http://www.w3.org/2000/svg">
<path d="M22.0232 32.4975C21.5489 32.4975 21.0872 32.3693 20.7058 32.1318C20.6847 32.1194 20.6642 32.1061 20.6446 32.092L12.167 26.2475H5.6951C5.10458 26.2475 4.53824 26.0499 4.12068 25.6983C3.70312 25.3467 3.46854 24.8698 3.46854 24.3725V15.6225C3.46854 15.1252 3.70312 14.6483 4.12068 14.2966C4.53824 13.945 5.10458 13.7475 5.6951 13.7475H12.166L20.6428 7.90294C20.6624 7.8888 20.6828 7.8755 20.704 7.86309C21.0356 7.65771 21.4283 7.53376 21.8385 7.505C22.2487 7.47624 22.6603 7.5438 23.0277 7.70018C23.3951 7.85656 23.7037 8.09563 23.9195 8.39083C24.1352 8.68604 24.2496 9.02584 24.2498 9.37247V30.6225C24.2498 31.1198 24.0152 31.5967 23.5976 31.9483C23.1801 32.2999 22.6137 32.4975 22.0232 32.4975Z" fill="black"/>
<path d="M30.1876 26.2506C29.9342 26.2505 29.6851 26.1959 29.464 26.0918C29.2428 25.9878 29.0569 25.8379 28.924 25.6562C28.7911 25.4746 28.7156 25.2674 28.7047 25.0542C28.6938 24.8411 28.7478 24.6292 28.8616 24.4386C29.7422 22.9641 30.1885 21.4694 30.1885 19.9997C30.1885 18.4854 29.7561 17.0352 28.8663 15.567C28.6958 15.2725 28.6694 14.9334 28.7928 14.6227C28.9162 14.312 29.1795 14.0545 29.5261 13.9056C29.8727 13.7567 30.2748 13.7283 30.6459 13.8265C31.0171 13.9248 31.3276 14.1418 31.5107 14.4309C32.6177 16.2585 33.1567 18.0806 33.1567 19.9997C33.1567 21.864 32.6 23.7354 31.5144 25.5622C31.3908 25.7692 31.2012 25.9432 30.9669 26.0648C30.7326 26.1863 30.4628 26.2507 30.1876 26.2506Z" fill="black"/>
<path d="M34.6388 29.9965C34.3782 29.9966 34.1222 29.9388 33.8965 29.8291C33.6708 29.7194 33.4833 29.5617 33.353 29.3716C33.2227 29.1816 33.1541 28.966 33.1541 28.7466C33.154 28.5271 33.2226 28.3115 33.3529 28.1215C35.1073 25.5504 36.1231 23.3957 36.1231 19.9965C36.1231 16.5457 35.1091 14.4059 33.3566 11.8762C33.1644 11.5901 33.1138 11.2518 33.2156 10.9345C33.3174 10.6172 33.5636 10.3465 33.9007 10.1809C34.2379 10.0153 34.6389 9.96819 35.017 10.0498C35.3951 10.1314 35.7199 10.3351 35.9209 10.6168C37.8784 13.4426 39.0919 15.9973 39.0919 19.9965C39.0919 23.9363 37.8803 26.5035 35.9255 29.3715C35.7951 29.5617 35.6076 29.7196 35.3817 29.8293C35.1558 29.939 34.8995 29.9967 34.6388 29.9965Z" fill="black"/>
<path d="M39.093 33.7483C38.8257 33.7481 38.5634 33.6872 38.3338 33.5719C38.1043 33.4566 37.9159 33.2913 37.7887 33.0933C37.6615 32.8953 37.6001 32.6721 37.611 32.4472C37.6219 32.2223 37.7048 32.0041 37.8508 31.8155C40.3779 28.5507 42.0618 25.2921 42.0618 19.9983C42.0618 14.803 40.3751 11.5124 37.8415 8.17097C37.7366 8.03246 37.6651 7.87792 37.6312 7.71615C37.5972 7.55439 37.6014 7.38857 37.6435 7.22817C37.6856 7.06777 37.7649 6.91593 37.8767 6.78132C37.9885 6.64671 38.1307 6.53196 38.2952 6.44362C38.4596 6.35529 38.6432 6.2951 38.8353 6.26649C39.0274 6.23788 39.2243 6.24142 39.4147 6.27689C39.6052 6.31237 39.7855 6.37909 39.9454 6.47324C40.1052 6.5674 40.2415 6.68715 40.3464 6.82565C43.1574 10.5366 45.0305 14.1967 45.0305 19.9983C45.0305 25.0569 43.6705 28.8757 40.3362 33.1811C40.2013 33.3553 40.017 33.4983 39.7999 33.5974C39.5829 33.6964 39.3399 33.7483 39.093 33.7483Z" fill="black"/>
</svg>
